<?xml version="1.0" encoding="UTF-8" standalone="no"?><!DOCTYPE svg PUBLIC "-//W3C//DTD SVG 1.1//EN" "http://www.w3.org/Graphics/SVG/1.1/DTD/svg11.dtd"><svg width="100%" height="100%" viewBox="0 0 487 751" version="1.1" xmlns="http://www.w3.org/2000/svg" xmlns:xlink="http://www.w3.org/1999/xlink" xml:space="preserve" xmlns:serif="http://www.serif.com/" style="fill-rule:evenodd;clip-rule:evenodd;stroke-linejoin:round;stroke-miterlimit:2;"><rect id="Artboard1" x="0" y="0" width="486.007" height="750.4" style="fill:none;"/><clipPath id="_clip1"><rect x="0" y="0" width="486.007" height="750.4"/></clipPath><g clip-path="url(#_clip1)"><g><path d="M242.43,249.248l244.073,-0l0,115.127l-486.385,-0l-0,-124.663c-0,-58.785 56.429,-114.334 115.213,-114.334c20.436,0 127.099,-0.654 127.099,-0.654l0,-9.659l-242.43,-0.915c-0,-58.359 56.972,-114.15 115.331,-114.15l257.326,0c59.398,0 114.343,51.408 114.343,114.343c-0,1.799 0.003,9.237 -0,11.035c-0.117,61.753 -52.634,114.02 -114.343,114.416l-130.227,0l0,9.454Z"/><path d="M242.43,501.144l244.073,-0l0,-0c0.001,-63.583 -51.544,-115.127 -115.126,-115.127l-256.132,-0c-63.583,-0 -115.127,51.544 -115.127,115.127c-0,3.095 -0.118,135.097 -0.118,135.097c-0,58.36 56.972,114.151 115.331,114.151l257.326,-0c59.398,-0 114.343,-51.408 114.343,-114.344c-0,-1.798 0.003,-9.236 -0,-11.035c-0.117,-61.752 -52.634,-114.019 -114.343,-114.416l-130.227,0l0,-9.453Z"/></g></g></svg>